<?xml version="1.0" standalone="no"?>
<!DOCTYPE svg PUBLIC "-//W3C//DTD SVG 20010904//EN"
 "http://www.w3.org/TR/2001/REC-SVG-20010904/DTD/svg10.dtd">
<svg version="1.0" xmlns="http://www.w3.org/2000/svg"
 width="4512.000000pt" height="3008.000000pt" viewBox="0 0 4512.000000 3008.000000"
 preserveAspectRatio="xMidYMid meet">

<g transform="translate(0.000000,3008.000000) scale(0.100000,-0.100000)"
fill="#000000" stroke="none">
<path d="M0 15040 l0 -15040 10084 0 c9081 0 10087 2 10121 16 20 8 42 13 48
11 7 -2 19 1 27 8 22 18 60 28 60 16 0 -6 5 -11 10 -11 6 0 9 3 9 8 -4 23 4
30 31 28 18 -1 30 3 30 10 0 6 7 15 16 18 8 3 13 2 9 -3 -11 -18 19 -17 38 2
13 13 30 18 56 16 31 -3 43 3 69 29 30 31 50 43 37 23 -3 -5 -1 -12 5 -16 5
-3 10 2 10 12 0 15 2 16 10 3 9 -13 12 -12 25 4 11 15 17 16 28 7 12 -9 16 -7
20 10 5 17 9 19 25 10 14 -7 19 -7 19 4 0 8 -5 11 -11 8 -6 -3 -5 0 2 8 11 12
14 12 22 0 7 -12 11 -12 23 -2 12 9 16 9 20 -1 3 -9 11 -5 26 12 13 14 19 18
15 10 -5 -12 -4 -12 6 -3 7 6 19 9 26 6 8 -3 14 1 14 11 0 9 3 15 8 15 4 -1
26 1 49 6 29 5 43 13 47 27 3 15 10 19 23 14 30 -12 38 -12 35 2 -2 10 2 10
18 2 13 -7 20 -7 20 0 0 5 5 10 10 10 6 0 21 9 32 20 13 12 29 18 40 15 28
-10 57 11 51 37 -4 19 -3 20 7 8 8 -11 13 -12 16 -3 3 7 11 10 19 7 13 -5 56
17 83 43 7 7 23 13 35 13 18 0 19 2 7 10 -12 8 -10 10 10 9 48 -4 60 0 54 18
-5 14 -4 15 4 4 7 -10 14 -10 29 -2 11 5 23 7 27 4 3 -3 6 3 6 15 0 15 6 22
20 22 14 0 20 7 20 22 0 21 0 21 16 2 11 -14 17 -16 21 -6 4 10 8 9 19 -5 12
-15 13 -15 8 -1 -4 11 1 18 15 23 12 3 21 10 21 15 0 5 13 5 30 0 19 -5 28 -5
25 1 -4 5 -1 9 4 9 6 0 11 5 11 11 0 5 -5 7 -10 4 -5 -3 -10 -1 -10 6 0 6 8 9
20 6 11 -3 20 -2 20 3 0 12 39 20 46 9 9 -16 26 -10 20 7 -5 13 -2 15 13 11
11 -3 22 0 23 5 2 5 16 11 31 11 15 1 27 7 27 12 0 6 5 3 10 -5 5 -8 10 -12
11 -7 1 4 3 12 4 17 1 6 3 15 4 20 1 7 8 7 22 -1 15 -8 19 -8 15 0 -9 14 0 14
24 1 13 -7 21 -7 25 0 3 5 -2 10 -12 11 -12 1 -10 3 7 8 14 5 31 3 40 -3 8 -6
12 -7 8 -2 -7 8 56 46 77 46 6 0 16 5 23 12 14 14 62 19 62 6 0 -4 5 -8 11 -8
6 0 8 8 4 19 -3 10 1 24 10 31 18 15 20 0 3 -19 -11 -11 -8 -12 12 -6 14 4 29
13 35 20 18 22 45 26 45 7 1 -16 1 -16 11 1 5 9 19 17 30 17 16 0 19 4 14 20
-6 18 -3 20 19 14 18 -4 31 0 47 15 13 12 25 17 28 13 10 -15 49 -9 43 6 -4
11 0 13 16 7 13 -4 22 -2 22 4 0 6 7 11 15 11 8 0 15 5 15 10 0 6 7 10 15 10
8 0 15 4 15 10 0 5 6 7 14 4 18 -7 112 39 109 54 -2 6 7 9 19 7 12 -3 28 1 36
8 8 6 17 11 19 10 1 -2 9 -3 16 -3 8 0 7 3 -3 10 -8 5 -12 12 -8 15 3 3 13 -2
22 -11 9 -9 18 -15 19 -13 19 35 27 44 41 43 9 -1 13 3 9 9 -4 6 2 8 15 5 15
-4 22 -2 22 8 0 16 34 36 44 26 4 -3 11 0 16 8 8 12 10 13 10 1 0 -11 5 -10
20 4 11 10 20 25 20 33 0 13 3 12 16 -4 14 -18 15 -18 8 6 -6 23 -5 24 8 6 10
-13 21 -16 37 -11 16 5 19 10 12 19 -8 9 -2 12 22 12 18 0 31 5 30 11 -1 6 4
14 12 17 8 3 15 1 15 -4 0 -6 5 -10 11 -10 5 0 7 4 4 10 -4 6 5 10 19 10 14 0
26 4 26 8 0 5 7 17 16 28 13 16 15 16 10 2 -3 -10 -1 -20 4 -23 6 -4 10 6 10
20 0 15 4 24 10 20 6 -3 10 1 10 9 0 9 7 16 15 16 12 0 13 -4 5 -19 -15 -29
-13 -44 4 -29 7 7 12 18 9 24 -4 10 24 20 74 26 7 1 12 4 11 7 -2 26 5 29 52
25 28 -3 50 -1 49 3 -4 22 3 24 21 8 17 -16 20 -16 20 -2 0 8 -5 17 -12 19 -7
3 -6 7 5 11 9 3 17 2 17 -4 0 -6 4 -8 9 -4 6 3 8 14 6 24 -3 14 1 18 16 14 15
-4 22 0 26 16 7 28 23 27 24 -1 0 -21 1 -21 8 -4 7 18 8 18 14 3 8 -21 27 -22
27 -2 0 8 5 15 10 15 6 0 10 9 10 20 0 17 5 19 33 14 24 -4 28 -3 17 5 -18 13
-1 15 19 2 7 -5 11 -14 7 -20 -4 -6 -2 -9 6 -6 8 3 19 18 24 34 6 15 19 28 28
28 10 0 15 -6 12 -13 -3 -8 -1 -16 4 -19 6 -4 10 2 10 12 0 15 2 16 10 3 8
-13 10 -12 10 3 0 11 4 15 12 11 7 -5 9 -2 5 9 -5 13 -2 14 15 8 30 -11 68 -2
61 15 -3 8 0 14 5 14 6 0 13 -8 15 -17 4 -14 5 -13 6 4 0 12 5 25 11 28 6 3 7
-1 4 -9 -4 -11 0 -16 15 -16 12 0 21 4 21 8 0 14 50 7 60 -8 5 -8 10 -12 11
-7 1 4 2 10 3 15 3 17 18 32 27 27 13 -9 79 17 73 27 -3 5 -15 6 -26 2 -14 -4
-18 -2 -14 5 4 6 20 11 35 11 15 0 32 5 39 12 9 9 12 9 12 0 0 -7 -7 -15 -15
-18 -28 -11 -16 -26 16 -19 18 4 29 3 26 -2 -3 -5 -1 -15 4 -23 8 -12 9 -9 7
10 -3 29 9 53 23 44 5 -3 7 -10 4 -15 -4 -5 -1 -9 4 -9 6 0 11 7 11 16 0 13 7
15 35 11 21 -3 33 -2 30 4 -4 5 1 10 9 10 9 1 21 3 26 4 6 1 16 3 23 4 8 1 7
4 -3 11 -9 6 -10 10 -3 10 6 0 15 -4 18 -10 9 -14 62 -12 72 3 13 20 60 40 74
32 8 -6 11 -4 7 6 -5 12 0 14 21 11 17 -2 34 4 48 18 18 16 27 19 42 10 28
-14 38 -13 60 11 10 11 27 20 37 19 11 -1 32 -2 48 -1 24 1 27 3 16 16 -15 18
-7 19 22 4 18 -10 20 -9 15 5 -6 16 1 19 45 19 10 0 15 4 12 8 -3 5 5 8 18 8
29 -1 93 23 95 36 1 5 6 11 13 13 6 2 9 -2 8 -8 -2 -7 2 -14 9 -17 7 -3 9 3 6
16 -6 22 12 29 20 9 3 -7 6 -2 6 11 1 18 5 22 20 18 14 -3 18 -1 14 10 -4 11
0 13 20 8 13 -4 28 -2 31 4 4 5 13 8 21 4 11 -3 15 2 15 17 0 17 4 21 20 17
11 -3 26 1 34 8 7 8 25 17 39 21 15 3 29 14 32 24 10 30 33 44 49 31 11 -9 17
-8 28 6 18 24 63 47 77 39 7 -5 9 -1 5 8 -4 11 0 16 10 16 9 0 17 8 17 18 1 9
4 4 8 -12 l6 -29 20 38 c11 21 27 41 35 43 11 4 11 0 -3 -15 -16 -18 -16 -21
-2 -26 8 -4 15 -1 15 5 0 6 8 16 17 23 15 11 16 15 3 31 -13 17 -13 18 1 7 16
-13 62 -6 53 8 -3 5 4 9 15 9 12 0 23 0 26 0 3 0 13 8 23 18 12 11 14 20 8 24
-6 4 -1 8 12 8 16 0 21 4 16 13 -4 7 -3 9 2 4 5 -5 10 -13 10 -18 1 -5 2 -11
3 -14 0 -2 14 9 30 24 17 16 45 32 63 36 46 10 67 26 61 44 -5 12 -3 13 6 5
10 -9 20 -8 43 3 23 12 27 18 17 24 -9 6 -10 9 -2 9 6 0 18 3 26 6 12 4 14 0
10 -15 -4 -17 -2 -20 11 -15 9 4 15 9 12 11 -7 7 15 27 37 36 12 4 17 1 17
-10 0 -13 8 -9 33 14 25 25 35 29 48 20 13 -8 21 -7 34 6 9 9 31 17 50 17 20
0 35 6 39 15 3 8 12 12 21 9 8 -3 15 -2 15 4 0 5 20 13 45 16 25 4 45 12 45
17 0 6 9 9 19 7 10 -2 29 6 42 17 12 11 19 15 16 8 -9 -15 7 -25 28 -17 13 5
14 8 3 15 -7 5 3 6 24 2 28 -4 39 -2 43 10 6 14 53 15 93 2 6 -3 12 0 12 5 0
6 -4 10 -10 10 -5 0 -10 4 -10 10 0 5 13 7 30 5 18 -2 30 1 30 8 0 8 3 8 8 2
10 -14 31 -13 40 2 6 9 17 10 40 4 21 -6 32 -6 32 0 0 6 6 7 13 2 21 -13 37
-12 37 3 0 9 5 12 10 9 6 -3 10 -1 10 4 0 6 5 11 11 11 6 0 9 -6 6 -13 -3 -8
-1 -20 4 -28 8 -12 9 -12 7 1 -2 8 1 16 6 17 5 1 13 7 18 15 7 10 11 10 14 1
3 -7 12 -9 20 -6 8 3 14 -1 14 -11 0 -10 6 -13 16 -9 11 4 12 8 4 13 -20 13 7
22 41 15 25 -6 30 -4 25 6 -4 8 -1 6 6 -3 11 -13 27 -16 70 -13 31 1 62 6 68
10 6 4 18 1 27 -7 9 -7 14 -8 10 -2 -8 14 21 27 37 17 6 -5 18 -8 26 -7 8 1
21 2 28 3 8 1 10 6 6 13 -6 10 -4 10 8 0 13 -10 17 -10 22 4 6 15 8 15 24 0
16 -14 21 -14 38 -1 24 18 48 19 41 1 -4 -11 2 -12 29 -6 22 5 34 4 34 -3 0
-5 11 2 25 17 30 32 55 34 55 4 1 -21 2 -21 11 -5 5 9 7 22 4 27 -3 6 1 7 10
4 9 -4 14 -13 11 -20 -3 -7 -1 -16 4 -19 6 -4 10 2 10 12 0 15 2 16 10 3 8
-13 10 -12 10 4 0 12 5 16 16 12 9 -3 22 -6 30 -6 8 0 11 -6 8 -15 -4 -8 -1
-15 6 -15 6 0 9 3 6 8 -7 12 22 45 33 37 6 -3 11 -1 11 5 0 6 5 8 11 4 6 -3
15 0 21 7 7 11 8 9 6 -6 -2 -14 2 -19 12 -16 8 3 30 4 48 4 17 -1 32 3 32 8 0
6 5 7 11 3 6 -3 30 -8 54 -9 23 -1 46 -5 52 -8 6 -4 19 0 29 7 14 11 22 11 32
3 10 -8 15 -8 21 1 5 8 25 10 59 7 29 -2 52 -1 52 3 0 4 18 8 40 9 22 1 40 -2
40 -7 0 -6 9 -2 20 7 11 10 20 24 20 31 0 8 6 12 13 9 6 -2 11 -9 10 -15 -1
-5 19 1 46 14 26 13 67 25 89 27 29 1 41 6 37 14 -2 7 1 12 8 10 7 -1 11 5 9
13 -1 9 7 5 20 -10 12 -14 19 -18 15 -9 -6 19 10 39 32 39 14 0 14 -2 1 -11
-12 -9 -12 -10 3 -5 10 3 22 6 27 6 5 0 12 9 15 20 3 11 11 20 17 20 6 0 6 -6
-2 -15 -16 -20 4 -20 24 0 17 18 30 20 20 4 -4 -7 -1 -10 7 -7 8 3 19 14 24
25 8 16 15 19 27 12 11 -6 18 -4 22 7 3 9 13 14 20 11 11 -4 14 0 11 16 -4 19
-3 20 8 6 11 -15 16 -13 47 17 29 29 35 32 41 18 5 -15 7 -15 22 6 10 14 22
20 31 17 9 -4 16 -2 16 3 0 6 9 10 20 10 15 0 20 7 21 28 1 16 3 20 6 9 5 -19
12 -21 33 -7 9 6 11 10 3 10 -7 0 -10 7 -6 16 5 13 7 13 14 2 7 -10 9 -10 9 0
0 7 14 12 36 12 19 0 33 4 29 9 -6 11 35 42 47 35 4 -3 19 7 32 21 17 18 26
22 29 13 4 -10 6 -10 6 0 1 8 10 10 29 6 18 -4 23 -2 14 4 -11 7 -11 11 0 19
22 17 68 25 68 12 0 -7 3 -9 7 -5 5 4 0 13 -10 21 -16 12 -16 13 8 17 14 3 33
-1 42 -8 22 -17 41 -18 25 -2 -18 18 -15 28 8 28 12 0 24 10 30 23 5 12 9 17
9 10 1 -7 8 -10 16 -7 8 4 12 10 9 15 -3 5 0 9 5 9 6 0 11 8 11 18 0 12 3 13
8 5 12 -19 50 -4 56 22 4 17 12 22 31 20 21 -3 23 -1 15 15 -6 11 -6 21 -1 24
5 4 11 2 13 -4 2 -5 22 -1 45 10 32 14 41 23 36 36 -5 14 -3 15 16 4 13 -6 25
-9 29 -6 3 3 -1 6 -8 6 -8 0 -4 8 9 19 14 13 20 25 15 33 -6 10 -5 10 7 2 17
-14 49 -14 49 -1 0 5 7 6 16 3 14 -5 15 -4 5 8 -10 11 -9 16 5 24 9 5 25 7 36
4 12 -3 18 0 16 9 -2 7 2 13 7 14 17 1 54 38 48 48 -4 6 3 8 15 5 22 -6 47 13
34 27 -4 4 3 4 15 1 19 -6 22 -4 16 10 -4 12 -3 15 6 10 8 -5 14 0 18 13 4 17
8 19 19 10 11 -9 14 -8 14 5 0 9 7 16 15 16 8 0 15 7 15 16 0 8 4 13 9 10 5
-3 14 1 21 9 14 17 35 21 25 5 -12 -19 11 -10 25 10 13 18 15 19 34 2 20 -16
20 -16 7 1 -12 15 -11 17 8 17 12 0 20 4 17 9 -3 5 2 15 11 22 15 12 16 12 10
-3 -3 -10 -2 -20 3 -23 5 -3 12 4 15 15 6 18 9 19 23 8 13 -11 14 -11 8 0 -10
17 11 42 30 35 8 -3 14 0 14 6 0 15 27 14 33 -1 4 -9 6 -7 6 3 1 12 8 15 27
11 19 -3 25 -1 20 7 -7 10 -3 13 27 15 6 1 17 7 23 14 5 8 22 15 37 15 16 1
27 8 28 17 1 8 5 4 9 -10 5 -15 8 -18 9 -9 1 16 27 34 44 31 4 -1 7 4 7 12 0
8 14 17 30 21 17 4 30 13 30 21 0 8 7 14 16 14 10 0 14 -6 10 -15 -3 -8 -2
-15 3 -15 5 0 11 9 14 20 3 11 19 25 36 31 17 6 28 15 25 20 -5 8 16 13 43 10
6 -1 14 3 18 9 5 8 11 7 21 -1 11 -9 14 -8 14 5 0 10 5 14 10 11 6 -3 10 -1
10 5 0 6 10 8 25 4 16 -4 25 -2 25 6 0 6 -4 9 -8 6 -4 -2 -14 -1 -22 5 -11 6
-8 9 13 9 16 0 26 4 22 10 -3 6 3 10 14 10 11 0 26 7 35 15 8 9 19 15 23 14 4
-1 21 -1 37 0 23 1 27 4 18 13 -17 17 -15 28 4 28 8 0 12 -4 9 -10 -10 -16 12
-11 30 6 12 13 16 13 13 3 -1 -8 0 -15 5 -16 4 -2 7 0 6 4 0 3 6 10 15 15 9 5
16 16 16 24 0 8 5 12 10 9 5 -3 10 -2 10 4 0 17 42 25 51 10 7 -11 9 -10 9 4
0 9 6 17 13 17 9 0 9 3 -1 9 -10 6 -7 10 13 15 14 4 30 4 35 1 6 -4 10 1 10 9
0 9 8 17 18 17 9 1 22 2 27 4 6 1 16 3 23 3 6 1 12 9 12 17 0 8 7 15 15 15 8
0 15 8 16 18 0 14 2 14 9 -3 6 -14 9 -16 10 -5 2 8 2 18 1 23 -2 11 14 8 27
-5 9 -9 13 -8 17 4 4 10 14 14 26 11 10 -3 19 -1 19 5 0 5 8 9 18 8 9 0 16 5
14 12 -1 8 2 11 8 7 6 -4 20 4 31 17 11 13 18 17 14 11 -11 -22 5 -14 31 14
21 23 27 25 34 13 6 -8 10 -10 10 -5 0 6 14 18 31 27 18 11 27 13 24 5 -4 -6
0 -4 8 6 8 9 19 17 26 17 6 0 11 5 11 11 0 6 7 9 15 5 9 -3 15 0 15 10 0 11 4
12 18 5 20 -11 52 2 33 13 -19 12 -12 23 14 25 47 3 54 4 50 11 -6 10 74 72
84 65 5 -3 13 4 16 15 5 14 10 18 18 12 15 -12 50 -7 55 7 2 6 10 11 19 11 8
0 21 7 30 15 8 8 19 12 25 9 5 -3 16 4 25 16 8 12 21 19 29 16 8 -3 14 -1 14
5 0 6 4 8 9 5 5 -3 12 1 15 10 4 9 9 14 13 10 4 -3 19 5 33 19 15 14 31 25 36
24 23 -4 36 2 31 15 -4 10 -1 13 9 9 7 -3 14 0 14 6 0 6 6 8 13 5 7 -2 33 7
57 21 58 32 91 46 113 48 9 1 17 4 17 8 0 4 9 11 20 14 11 3 20 13 20 22 0 12
3 13 14 4 11 -9 16 -9 21 -1 4 7 18 9 32 5 16 -4 22 -2 18 5 -3 5 1 10 9 10 9
0 16 5 16 10 0 6 7 10 15 10 21 0 95 33 95 43 0 4 5 5 11 2 6 -4 17 1 25 11 9
11 13 13 9 7 -8 -16 -3 -16 29 0 14 8 22 18 18 22 -4 4 3 6 14 3 16 -4 25 1
34 17 12 23 24 26 48 12 8 -6 12 -2 12 12 0 23 15 28 23 9 4 -10 8 -9 16 2 10
13 11 13 11 0 0 -10 3 -11 8 -4 10 16 51 36 61 30 5 -3 16 3 26 14 19 21 51
28 39 8 -4 -7 -3 -8 5 -4 6 4 9 12 6 17 -4 5 2 10 12 11 25 2 33 3 73 13 19 5
39 9 43 9 4 1 11 7 16 14 4 7 15 10 25 6 11 -4 22 -1 27 7 7 12 10 12 18 1 7
-11 9 -11 14 1 3 8 23 17 44 19 53 6 63 10 85 31 11 10 26 16 33 13 10 -3 12
0 8 11 -5 13 -1 15 23 10 32 -6 134 13 134 25 0 4 7 5 15 2 8 -4 15 -1 15 5 0
6 7 11 15 11 8 0 15 5 15 11 0 8 4 8 15 -1 11 -9 22 -9 45 -1 17 5 29 7 26 3
-2 -4 4 -8 15 -8 12 0 18 5 15 13 -3 7 2 14 12 15 9 0 28 2 42 3 14 2 31 3 38
4 6 0 12 9 12 18 0 13 3 14 11 6 8 -8 19 -9 38 -1 14 5 41 12 60 14 18 3 42 9
52 15 11 5 24 7 29 4 6 -3 10 -2 10 3 0 12 119 47 172 51 10 0 15 7 13 14 -4
8 7 13 32 15 20 1 42 7 49 13 7 6 19 7 26 3 7 -4 10 -4 6 1 -9 9 9 35 23 35 5
0 9 -7 9 -16 0 -14 2 -14 22 0 12 9 36 16 52 16 16 0 26 3 23 7 -4 3 3 13 15
21 19 14 22 13 33 -1 11 -15 15 -15 41 8 29 25 50 33 39 15 -10 -16 5 -12 32
10 15 11 29 18 32 15 3 -4 -1 -10 -9 -15 -8 -6 -10 -10 -4 -10 5 0 16 6 23 13
6 6 22 12 34 13 59 3 63 4 47 15 -11 7 -5 9 25 7 23 -2 39 1 38 7 0 6 6 17 15
25 14 13 15 12 9 -3 -5 -15 -2 -16 21 -11 15 4 32 12 38 20 8 10 13 11 22 2 9
-9 12 -8 12 5 0 10 5 14 14 11 8 -3 29 2 46 11 17 9 38 14 45 11 7 -2 22 2 34
10 12 8 25 12 31 9 5 -3 7 0 4 8 -4 11 4 14 34 13 30 -1 38 -5 35 -16 -3 -8 4
-5 15 7 16 18 27 22 54 18 18 -3 27 -3 20 1 -6 3 -10 10 -6 15 3 5 12 5 23 -1
10 -5 21 -7 24 -4 3 3 21 7 39 8 18 2 42 7 52 11 14 6 17 5 12 -3 -4 -7 -2
-12 4 -12 6 0 13 7 17 15 4 12 16 14 50 11 25 -4 42 -2 38 3 -11 19 17 22 38
5 12 -10 16 -12 10 -4 -19 21 47 43 141 46 45 1 82 7 86 13 3 7 14 9 23 5 10
-3 17 -1 17 5 0 6 9 11 20 11 11 0 20 -5 20 -12 0 -9 3 -9 12 0 7 7 20 12 31
12 10 0 15 5 12 10 -3 6 2 10 12 10 11 0 24 5 31 12 9 9 12 8 12 -7 0 -11 4
-16 8 -10 12 18 60 35 64 24 4 -13 58 9 58 23 0 5 5 6 10 3 6 -4 7 -11 4 -17
-5 -8 1 -9 17 -4 57 18 72 19 64 6 -4 -7 4 -5 18 5 17 10 27 13 32 6 3 -6 11
-11 16 -11 6 0 7 5 3 11 -4 8 1 9 16 4 15 -5 20 -4 16 4 -7 11 -3 12 66 17 20
1 54 8 74 14 28 10 39 10 42 2 2 -8 9 -9 20 -3 28 15 82 23 177 26 49 2 91 8
93 13 4 12 42 3 42 -10 0 -6 8 -7 18 -3 9 4 53 9 97 11 44 2 99 5 123 7 24 1
46 -1 49 -6 2 -4 11 -3 19 4 7 6 21 9 29 5 8 -3 15 0 15 7 0 8 4 6 10 -3 5 -8
10 -10 10 -4 0 6 12 9 29 6 16 -2 32 1 36 8 5 8 10 8 21 -1 11 -9 17 -9 28 0
11 9 20 9 34 2 11 -6 22 -7 26 -4 5 6 94 14 136 13 8 0 39 0 68 0 33 0 51 -3
47 -10 -3 -5 0 -7 9 -4 8 3 17 11 19 18 3 8 17 11 37 8 18 -2 27 -8 21 -11 -6
-4 7 -7 29 -6 22 0 40 3 40 6 0 3 13 6 29 6 20 0 28 -4 24 -14 -3 -7 0 -13 6
-13 6 0 11 7 11 15 0 17 16 20 25 5 3 -5 11 -10 16 -10 6 0 8 4 5 9 -4 5 21
11 55 13 33 1 63 0 66 -5 2 -4 13 -2 24 4 11 5 30 7 42 4 17 -5 19 -4 7 4 -12
9 -10 11 12 11 15 0 30 -4 33 -10 10 -16 25 -12 19 5 -5 11 -2 13 12 8 12 -4
15 -3 10 5 -5 8 -2 10 9 6 9 -4 14 -13 10 -22 -4 -12 -3 -13 9 -3 8 7 12 20 9
29 -5 13 -1 12 23 -5 24 -17 31 -18 41 -8 10 10 9 16 -2 25 -8 7 -12 17 -9 22
4 6 11 4 16 -6 13 -23 27 -11 21 17 -6 21 -6 21 15 -3 l21 -25 1 25 c0 15 3
20 8 13 10 -15 62 -10 73 8 6 11 12 10 28 -5 21 -19 58 -18 53 3 -1 7 2 10 7
7 5 -3 14 1 21 10 7 8 20 12 28 9 8 -3 21 3 29 12 13 16 14 16 9 1 -2 -9 1
-19 9 -21 8 -4 12 1 10 11 -4 30 5 32 43 9 25 -14 33 -16 25 -6 -7 9 -10 19
-6 23 4 4 0 4 -10 0 -23 -8 -21 -2 5 20 14 12 19 14 16 4 -3 -7 1 -23 9 -33
12 -15 14 -16 10 -3 -6 18 15 42 27 31 4 -4 4 1 0 11 -6 16 -4 18 13 14 12 -3
27 -2 34 3 8 5 17 3 21 -4 6 -9 10 -8 17 3 11 16 4 33 -10 25 -5 -4 -9 -4 -9
-1 0 3 10 10 21 17 17 9 23 8 30 -2 13 -21 22 -3 10 19 -10 19 -9 20 19 12 18
-5 30 -5 30 1 0 5 7 9 15 9 8 0 15 5 15 10 0 6 10 15 23 20 21 8 21 9 -5 9
-21 1 -25 5 -21 21 3 11 9 17 14 14 5 -3 6 -11 3 -17 -5 -9 -4 -9 6 -1 6 7 13
24 13 38 1 14 8 28 16 31 9 3 11 0 7 -10 -3 -9 0 -15 8 -15 20 0 27 12 15 26
-7 9 -3 14 19 19 29 6 29 6 17 43 -16 45 -10 55 14 23 15 -20 19 -21 24 -7 4
9 2 16 -3 16 -5 0 -7 6 -4 14 3 8 12 12 20 9 13 -5 19 8 14 32 -1 6 4 5 11 -2
17 -17 44 13 45 51 0 17 6 31 15 34 11 3 11 2 -1 -7 -8 -6 -10 -11 -4 -11 18
0 24 13 12 27 -9 11 -8 13 3 11 8 -2 17 -7 20 -12 4 -4 10 -3 13 3 4 6 2 11
-3 11 -6 0 -11 5 -11 10 0 6 6 10 14 10 8 0 17 14 21 30 4 17 10 30 14 30 4 0
16 6 26 14 16 12 17 16 6 30 -12 14 -11 16 7 16 11 0 22 7 26 15 3 8 13 15 21
15 9 0 14 4 11 9 -3 4 3 16 14 26 25 22 26 36 3 28 -15 -5 -16 -4 -5 8 11 12
15 11 28 -5 13 -18 19 -15 15 7 -1 5 3 6 8 3 11 -7 33 18 24 27 -3 4 1 15 9
24 8 10 18 26 21 36 4 10 12 15 18 11 8 -4 9 1 4 16 -6 20 -4 22 13 18 12 -3
29 0 39 8 22 17 37 18 27 2 -5 -7 -3 -8 5 -3 7 4 11 18 8 31 -2 13 1 24 7 25
6 1 19 2 28 3 10 0 18 6 19 11 0 6 8 19 17 29 13 14 14 20 4 23 -6 3 -12 12
-12 21 0 14 2 14 9 3 8 -12 14 -12 41 -1 17 7 29 18 27 24 -3 6 8 12 25 13 23
2 29 -1 24 -13 -4 -10 -1 -14 6 -11 7 2 12 14 10 25 -4 24 8 28 26 10 9 -9 15
-8 26 8 13 16 13 19 0 22 -19 5 -18 32 2 32 8 0 12 -4 9 -10 -3 -6 1 -7 10 -4
11 5 13 10 5 19 -8 9 -8 15 0 20 5 3 10 1 10 -4 0 -6 5 -11 10 -11 6 0 10 5
10 10 0 6 10 20 21 31 20 20 23 20 31 5 14 -25 39 -19 51 14 6 17 17 30 25 30
8 0 10 5 6 13 -6 9 -4 9 8 -1 13 -11 20 -8 40 15 27 31 88 67 88 53 0 -6 5
-10 11 -10 7 0 9 10 5 25 -6 24 7 35 18 16 3 -5 15 -11 27 -14 16 -4 19 -3 11
5 -15 15 32 60 53 52 11 -5 14 -1 9 12 -6 17 -5 17 9 -1 9 -11 17 -16 17 -11
0 5 7 3 15 -4 10 -9 15 -9 15 -1 0 6 -3 11 -8 11 -4 0 -13 10 -21 23 -10 17
-11 19 0 10 7 -7 21 -13 30 -13 10 0 20 -6 22 -12 3 -7 6 -1 6 14 1 20 5 26
16 22 8 -4 12 -10 9 -15 -3 -5 6 -4 21 3 18 8 29 8 36 1 14 -14 102 14 93 29
-4 6 1 8 15 3 16 -5 20 -3 15 9 -3 9 -1 16 4 16 6 0 12 -10 14 -23 2 -12 6
-21 11 -19 4 1 7 5 6 8 0 4 3 10 8 13 4 3 13 15 19 25 12 22 34 33 34 18 0 -6
-8 -13 -17 -15 -15 -4 -15 -5 -2 -6 9 0 25 7 37 17 60 51 58 50 76 37 15 -11
14 -13 -6 -18 -17 -5 -20 -9 -11 -18 16 -16 43 -4 43 20 0 25 20 38 31 20 7
-11 9 -10 9 5 0 17 2 17 20 -4 11 -13 20 -27 20 -32 0 -4 4 -8 8 -8 5 0 9 7 9
15 0 8 -5 11 -10 8 -5 -3 -7 0 -5 8 3 8 11 13 17 11 6 -1 11 5 11 12 0 12 6
13 30 5 17 -6 30 -16 30 -22 0 -6 12 1 28 16 20 19 34 25 50 20 22 -5 22 -6 5
-27 -9 -11 0 -4 22 17 l39 39 19 -24 c18 -20 19 -21 13 -3 -6 19 -2 21 59 20
53 0 67 4 79 20 9 11 16 16 16 10 0 -7 3 -7 8 0 4 6 18 16 31 24 21 12 26 11
37 -3 7 -10 15 -13 18 -7 3 5 1 11 -6 13 -8 3 -6 7 5 11 12 4 17 1 17 -10 0
-12 3 -13 13 -4 8 6 17 8 21 4 4 -4 4 0 1 9 -8 21 10 31 34 19 14 -8 20 -7 25
4 3 8 15 15 26 15 11 0 20 5 20 12 0 6 3 8 6 5 4 -3 16 0 28 8 26 19 36 19 36
-1 0 -23 47 -10 71 19 19 22 19 22 35 2 15 -20 15 -20 36 5 19 24 20 24 34 6
13 -19 14 -18 34 7 20 25 22 26 46 11 22 -15 28 -13 25 8 0 4 16 6 37 4 39 -3
72 10 68 28 -2 6 -1 8 1 4 3 -5 11 -8 19 -8 8 0 14 -7 14 -16 0 -13 8 -9 29
13 26 28 30 29 34 12 3 -10 10 -19 16 -19 6 0 8 7 5 15 -4 9 0 15 9 15 20 0
31 -17 15 -22 -7 -3 3 -4 24 -4 20 1 34 4 32 7 -2 3 7 11 19 17 25 13 128 12
120 -1 -3 -5 7 -1 22 9 l28 18 -12 -23 c-7 -12 -10 -25 -7 -29 3 -3 6 0 6 7 0
9 16 11 55 7 30 -3 57 -1 60 5 4 5 11 9 16 9 6 0 7 -5 3 -12 -5 -8 3 -9 30 -5
22 3 34 2 31 -4 -4 -5 -3 -9 2 -10 4 0 16 -2 25 -4 10 -2 20 1 24 6 3 5 18 9
34 9 24 0 28 -3 23 -17 -6 -16 -5 -16 11 -4 15 13 19 13 27 0 7 -11 9 -11 9 0
0 11 3 11 15 1 8 -7 27 -10 43 -7 15 2 36 1 47 -3 11 -5 14 -9 7 -9 -7 -1 -10
-6 -7 -11 4 -7 11 -7 18 -2 7 5 29 12 51 15 35 6 37 5 20 -8 -18 -14 -18 -14
3 -15 12 0 24 6 26 13 4 8 8 9 14 1 4 -6 15 -11 23 -12 8 0 34 -2 58 -5 23 -3
42 -1 42 4 0 5 6 9 14 9 9 0 13 -7 11 -19 -5 -26 22 -17 30 10 4 11 11 17 16
14 5 -4 5 -14 -1 -25 -7 -13 -7 -21 0 -25 5 -3 10 0 10 8 0 14 77 34 88 22 3
-3 -4 -5 -16 -5 -12 0 -22 -5 -22 -11 0 -7 9 -9 22 -6 12 4 28 1 35 -5 10 -8
13 -6 13 7 0 13 6 16 26 11 14 -4 23 -3 20 2 -3 5 1 9 8 9 8 0 12 -6 9 -12 -2
-7 5 -15 16 -18 27 -7 34 3 13 19 -15 12 -15 13 8 14 19 0 26 -5 27 -21 3 -31
8 -32 42 -14 30 15 31 15 31 -5 0 -11 5 -20 11 -20 5 0 7 6 3 12 -6 10 -5 10
7 1 16 -13 59 -14 59 -1 0 4 9 8 21 8 19 0 20 -1 3 -17 -17 -17 -17 -18 2 -22
10 -1 27 -10 37 -19 16 -15 17 -15 12 0 -8 21 14 35 26 17 5 -8 9 -9 9 -4 0 6
7 2 15 -9 7 -10 19 -15 24 -11 6 3 14 -1 17 -9 3 -9 13 -16 21 -16 8 0 12 -4
9 -9 -3 -5 5 -11 19 -13 13 -3 26 0 28 6 3 8 8 7 19 -1 8 -7 18 -9 23 -5 4 4
6 -5 3 -20 -4 -19 -1 -25 9 -21 9 3 11 13 7 27 -10 32 -10 34 1 37 6 2 12 -7
13 -21 5 -31 38 -65 48 -48 5 7 12 5 22 -8 13 -18 14 -18 7 4 -7 25 3 28 30 8
12 -8 16 -20 12 -34 -3 -12 -1 -25 4 -28 5 -3 9 1 9 9 0 8 6 20 14 26 11 9 15
5 20 -24 6 -32 9 -34 28 -24 17 9 23 9 26 0 5 -16 29 -14 36 5 8 21 29 6 23
-17 -6 -23 2 -25 17 -3 10 14 17 12 64 -12 29 -15 52 -32 52 -38 0 -6 4 -5 9
3 8 12 11 12 25 -1 8 -9 12 -18 9 -22 -4 -3 2 -6 11 -6 10 0 26 10 37 23 l18
22 1 -21 c0 -12 7 -24 15 -28 18 -6 21 24 4 41 -8 8 -8 13 0 17 8 5 11 3126
11 11112 l0 11104 -22560 0 -22560 0 0 -15040z m10762 12053 c25 -22 48 -77
48 -113 0 -24 13 -46 50 -89 28 -32 50 -66 50 -76 0 -21 61 -178 90 -233 11
-20 23 -51 26 -69 3 -18 10 -36 15 -39 16 -9 37 -70 44 -123 7 -58 -5 -67 -32
-23 -10 15 -21 30 -26 33 -5 3 -8 9 -8 13 2 8 -30 69 -39 76 -3 3 -16 32 -28
65 -13 33 -33 73 -45 88 -12 16 -32 41 -45 57 -12 16 -33 30 -45 32 -14 2 -24
12 -27 28 -3 14 -24 43 -47 64 -24 21 -43 44 -43 50 0 7 -16 35 -35 62 -29 41
-35 57 -34 99 1 27 4 61 8 75 13 48 81 61 123 23z m7768 -15 c11 -12 20 -28
20 -35 0 -8 11 -35 25 -61 14 -26 25 -53 25 -60 0 -17 -21 -11 -30 9 -30 65
-37 74 -59 74 -18 0 -30 -13 -56 -61 -42 -80 -47 -104 -30 -137 16 -31 4 -45
-19 -22 -20 21 -29 4 -28 -54 2 -53 -9 -77 -32 -68 -21 8 -86 -68 -100 -117
-6 -21 -15 -36 -20 -34 -5 2 -12 -7 -17 -19 -4 -12 -20 -24 -38 -28 -28 -6
-36 -15 -32 -38 1 -4 -5 -10 -13 -13 -8 -3 -13 -11 -10 -19 3 -7 -4 -15 -17
-18 -14 -4 -20 -11 -16 -21 4 -9 2 -16 -3 -16 -6 0 -10 -10 -10 -23 0 -13 -9
-41 -19 -63 -11 -23 -15 -41 -9 -45 5 -3 -2 -13 -16 -22 -14 -9 -36 -29 -51
-44 -14 -15 -25 -22 -25 -15 0 42 102 291 123 300 4 2 7 24 7 48 0 42 12 58
24 32 8 -21 44 29 52 70 4 20 23 60 44 87 21 28 47 68 59 90 52 97 88 148 117
163 20 10 53 70 84 150 15 38 40 42 70 10z m66 -220 c-2 -18 -7 -45 -11 -59
-3 -15 -2 -43 3 -63 9 -32 8 -36 -9 -36 -21 0 -39 48 -22 59 5 3 10 17 9 31 0
38 15 100 25 100 4 0 7 -15 5 -32z m-116 -368 c0 -22 -1 -23 -24 -14 -13 5
-14 9 -5 20 16 20 29 17 29 -6z m4210 -161 c0 -8 14 -10 40 -6 48 6 59 -6 33
-36 -11 -12 -24 -34 -31 -49 -10 -23 -9 -28 3 -28 19 0 19 -16 0 -24 -8 -3
-21 -18 -27 -33 -7 -15 -15 -30 -18 -33 -4 -3 -25 -44 -48 -92 -42 -86 -43
-87 -62 -68 -13 13 -19 32 -18 60 0 22 -3 44 -6 47 -4 4 -47 9 -96 11 l-90 4
-6 -30 c-3 -16 -16 -35 -29 -42 -12 -7 -28 -23 -34 -37 -14 -31 -14 -33 4 -33
8 0 15 -5 15 -11 0 -6 -8 -8 -18 -5 -33 11 -109 -92 -81 -110 17 -10 9 -25
-10 -19 -24 7 -66 -35 -82 -82 -6 -18 -17 -33 -25 -33 -8 0 -14 -6 -14 -14 0
-8 -13 -28 -30 -46 -16 -18 -30 -35 -30 -38 0 -12 -44 -52 -58 -52 -9 0 -12
-6 -8 -16 6 -16 -43 -74 -62 -74 -5 0 -12 -7 -16 -15 -11 -29 -26 -15 -20 18
4 19 19 43 40 60 19 16 34 35 34 41 0 7 9 21 20 31 11 10 46 58 77 107 44 67
61 87 74 83 13 -4 25 7 45 42 15 26 40 64 54 83 15 19 44 67 64 105 43 80 79
115 120 115 20 0 39 11 65 40 20 22 41 40 47 40 6 0 22 14 35 31 13 17 37 36
55 44 18 7 37 26 45 44 13 30 49 44 49 20z m-4313 -41 c-7 -26 9 -49 29 -41
17 6 17 -10 -1 -57 -12 -32 -14 -33 -14 -9 -1 14 -4 29 -8 33 -16 16 -30 75
-20 85 16 16 20 13 14 -11z m-7587 -118 c0 -5 -4 -10 -10 -10 -5 0 -10 5 -10
10 0 6 5 10 10 10 6 0 10 -4 10 -10z m9894 -196 c9 -8 16 -24 16 -35 0 -25
-52 -133 -86 -179 -16 -22 -23 -42 -20 -56 4 -13 -10 -58 -35 -115 -30 -70
-39 -101 -34 -125 4 -24 1 -33 -11 -38 -22 -8 -24 -8 -24 9 0 7 -7 18 -16 23
-33 18 -16 146 24 177 7 6 19 28 27 50 12 35 12 41 -2 52 -17 13 -41 5 -76
-26 -11 -9 -31 -14 -49 -12 -16 1 -37 -4 -46 -12 -9 -8 -28 -18 -40 -22 -23
-7 -23 -6 -7 19 9 14 25 28 34 31 10 3 27 19 39 35 13 17 29 30 37 30 8 0 22
11 31 25 9 14 21 25 28 25 6 0 28 28 50 61 55 88 122 122 160 83z m1729 -96
c7 -26 1 -38 -19 -38 -16 0 -17 5 -8 38 8 28 20 28 27 0z m-50 -55 c-5 -12 -7
-12 -14 -1 -13 20 -11 28 5 22 8 -3 12 -12 9 -21z m177 -53 c0 -5 -4 -10 -10
-10 -5 0 -10 5 -10 10 0 6 5 10 10 10 6 0 10 -4 10 -10z m-393 -136 c-3 -3
-12 -4 -19 -1 -8 3 -5 6 6 6 11 1 17 -2 13 -5z m-1720 -34 c3 -11 9 -20 14
-20 5 0 6 -6 3 -14 -4 -10 -16 -12 -37 -9 -41 6 -42 7 -22 37 21 31 35 33 42
6z m-161 -86 c-5 -45 -16 -63 -78 -127 -10 -10 -18 -26 -18 -37 0 -10 -13 -32
-30 -48 -16 -17 -30 -35 -30 -40 0 -5 -12 -20 -27 -34 -16 -14 -39 -40 -52
-57 -13 -17 -29 -31 -37 -31 -7 0 -18 -8 -23 -17 -9 -16 -10 -15 -11 6 0 26
67 139 110 186 16 17 42 54 59 83 49 84 110 162 127 162 12 0 14 -9 10 -46z
m124 -10 c0 -16 -47 -37 -65 -30 -21 8 -5 54 19 58 25 5 46 -9 46 -28z m-4906
-79 c7 -16 16 -70 19 -120 4 -49 15 -123 24 -164 16 -69 16 -80 0 -188 -17
-123 -40 -178 -72 -177 -11 0 -38 6 -59 12 -32 9 -45 8 -73 -4 -18 -9 -33 -19
-33 -23 0 -4 -16 -13 -36 -20 -30 -11 -41 -11 -61 0 -24 13 -25 17 -20 84 3
38 11 88 18 110 16 51 14 44 24 90 4 22 12 48 17 57 4 10 13 66 18 125 6 60
13 115 17 123 9 21 10 27 12 48 1 23 50 82 67 82 8 0 14 4 14 9 0 17 54 17 83
1 16 -8 34 -28 41 -45z m4821 -36 c-4 -5 -13 -9 -22 -9 -13 0 -13 3 -3 15 13
15 35 11 25 -6z m-65 -35 c0 -8 -4 -12 -10 -9 -5 3 -10 10 -10 16 0 5 5 9 10
9 6 0 10 -7 10 -16z m1173 -1075 c29 -13 47 -48 47 -88 0 -31 -34 -137 -51
-157 -15 -19 -1 -98 31 -169 32 -71 26 -107 -21 -144 -37 -29 -116 -32 -155
-6 -37 24 -57 71 -48 114 5 20 8 42 7 48 0 7 3 10 8 7 5 -3 9 -1 9 4 0 5 -24
14 -52 21 -52 12 -108 52 -108 77 0 7 -8 18 -17 23 -11 6 -13 11 -5 11 7 0 11
4 8 9 -13 21 17 63 66 95 29 19 69 51 88 71 45 48 117 95 146 95 13 0 34 -5
47 -11z m1204 -71 c23 -19 14 -53 -28 -110 -33 -44 -49 -58 -76 -63 -19 -3
-40 -2 -46 3 -44 34 -117 12 -85 -26 21 -24 31 -43 21 -40 -17 4 -53 -14 -53
-27 0 -17 -34 -37 -45 -27 -4 4 -2 -3 6 -15 10 -18 11 -24 0 -37 -8 -9 -20
-16 -27 -16 -8 0 -14 -5 -14 -11 0 -6 9 -9 20 -6 23 6 26 -3 8 -21 -15 -15
-48 -16 -48 -2 0 16 -30 11 -57 -9 -18 -15 -37 -19 -71 -17 -25 1 -47 7 -49
13 -2 6 -13 9 -23 6 -27 -7 -25 11 3 29 28 19 153 145 178 180 11 14 33 30 51
33 17 4 42 20 56 36 13 16 31 29 39 29 9 0 35 21 58 46 61 66 139 88 182 52z
m1623 -153 c0 -9 -9 -15 -25 -15 -14 0 -29 -8 -35 -20 -10 -18 -7 -22 26 -36
25 -10 33 -19 26 -26 -13 -13 -45 7 -67 45 -15 25 -21 28 -51 22 -30 -5 -34
-3 -34 16 0 20 4 21 48 16 26 -3 55 -1 63 4 22 14 49 11 49 -6z m-170 -82 c0
-17 -91 -116 -120 -129 -33 -16 -48 -27 -135 -99 -52 -42 -65 -49 -65 -31 0
26 110 146 134 146 24 0 106 55 106 71 0 19 49 59 64 53 9 -3 16 -8 16 -11z
m-1630 -13 c0 -5 -5 -10 -11 -10 -5 0 -7 5 -4 10 3 6 8 10 11 10 2 0 4 -4 4
-10z m-1398 -104 c3 2 8 -3 12 -12 4 -12 2 -15 -9 -11 -20 8 -28 -8 -10 -23
22 -18 8 -30 -26 -23 -21 4 -34 1 -39 -8 -7 -11 -13 -8 -29 10 -23 26 -28 51
-10 51 5 0 7 6 3 13 -5 7 0 6 11 -3 11 -9 16 -10 11 -2 -5 8 -1 12 12 12 23 0
37 -26 19 -34 -7 -2 -4 -5 6 -5 12 -1 18 5 16 17 -3 30 1 35 14 23 8 -6 16 -8
19 -5z m991 -82 c10 -3 13 -13 9 -27 -5 -19 -3 -20 11 -9 34 28 46 -5 25 -67
-21 -59 -59 -86 -84 -61 -6 6 -21 12 -33 15 -17 3 -21 0 -17 -10 3 -10 -1 -15
-12 -15 -10 0 -23 -5 -30 -12 -7 -7 -12 -8 -12 -3 0 4 -8 -1 -17 -11 -10 -11
-30 -25 -45 -33 -16 -8 -28 -18 -28 -23 0 -4 -7 -8 -15 -8 -8 0 -15 -4 -15
-10 0 -5 -5 -10 -11 -10 -16 0 106 152 146 180 19 14 35 28 35 32 0 9 63 78
71 78 4 0 14 -3 22 -6z m-1363 -82 c0 -5 -16 -16 -36 -25 -31 -15 -35 -21 -30
-42 4 -17 2 -25 -7 -25 -11 0 -14 19 -8 66 0 5 10 20 21 32 17 18 25 20 40 12
11 -6 20 -14 20 -18z m3090 -53 c0 -17 -9 -43 -20 -59 -11 -15 -25 -45 -32
-65 -10 -30 -22 -41 -53 -54 -69 -28 -203 -111 -229 -142 -14 -16 -31 -29 -38
-29 -8 0 -19 -5 -26 -12 -25 -25 -10 5 28 57 22 30 46 55 52 55 6 0 55 42 107
94 137 135 193 186 203 186 4 0 8 -14 8 -31z m-2780 -209 c0 -5 -5 -10 -11
-10 -5 0 -7 5 -4 10 3 6 8 10 11 10 2 0 4 -4 4 -10z m585 -301 c4 -6 13 -8 20
-5 21 8 31 -15 33 -72 2 -59 -17 -116 -45 -130 -10 -5 -35 -10 -55 -10 -33 -1
-37 1 -44 31 -3 18 -11 35 -17 39 -17 10 10 83 44 123 32 36 53 44 64 24z
m-215 -262 c-31 -31 -32 -31 -25 -7 10 32 25 51 36 44 5 -3 9 1 10 8 0 10 2
10 6 0 3 -7 -10 -27 -27 -45z m-58 -93 c-7 -12 -11 -13 -17 -4 -4 7 -2 16 6
21 18 11 23 4 11 -17z m335 -1280 c31 -8 19 -24 -18 -24 -28 0 -37 9 -22 23 8
8 12 8 40 1z m-15590 -2810 c11 -28 -51 -71 -94 -66 -25 3 -34 1 -29 -7 4 -6
2 -11 -3 -11 -6 0 -11 -9 -11 -19 0 -10 -7 -21 -15 -25 -8 -3 -15 -14 -15 -25
0 -11 -20 -36 -47 -58 -27 -21 -50 -41 -53 -45 -3 -3 -17 -9 -32 -13 -14 -4
-36 -18 -49 -31 -12 -13 -26 -24 -30 -24 -4 0 -20 -5 -36 -12 -15 -6 -44 -13
-64 -14 -33 -2 -35 -1 -37 33 -2 28 3 40 29 61 17 15 52 45 77 68 71 63 131
93 170 87 25 -4 37 0 51 16 10 11 26 21 35 21 9 0 28 12 42 27 46 49 99 67
111 37z m15333 -109 c6 3 10 0 10 -8 0 -10 -10 -13 -37 -10 -44 5 -53 11 -33
23 8 5 21 5 32 -1 10 -6 23 -7 28 -4z m-66 -47 c11 -10 11 -15 0 -25 -16 -16
-24 -16 -48 2 -10 7 -15 18 -11 24 8 15 43 14 59 -1z m46 -90 c0 -6 -7 -5 -15
2 -8 7 -15 17 -15 22 0 6 7 5 15 -2 8 -7 15 -17 15 -22z m-15830 -138 c0 -5
-4 -10 -10 -10 -5 0 -10 5 -10 10 0 6 5 10 10 10 6 0 10 -4 10 -10z m16490
-66 c0 -8 -4 -12 -10 -9 -5 3 -10 13 -10 21 0 8 5 12 10 9 6 -3 10 -13 10 -21z
m12 -50 c-5 -24 -29 -58 -34 -47 -9 15 13 74 25 70 7 -2 10 -12 9 -23z m-24
-83 c10 -6 8 -19 -11 -62 -14 -30 -27 -62 -31 -71 -4 -14 -11 -16 -28 -9 -26
10 -36 31 -14 31 9 0 16 6 16 13 0 6 9 23 20 37 11 14 20 35 20 48 0 23 7 27
28 13z m-208 -96 c0 -8 9 -15 19 -15 10 0 21 -6 24 -14 3 -8 21 -17 39 -21 51
-10 78 -26 78 -48 0 -14 5 -18 20 -14 21 5 26 -3 11 -18 -5 -6 -11 -23 -13
-39 -3 -31 -28 -50 -28 -22 0 9 -4 16 -10 16 -5 0 -10 18 -10 40 0 38 -2 40
-24 34 -13 -3 -27 -1 -30 5 -8 13 -26 15 -26 3 0 -5 11 -22 25 -38 42 -49 31
-59 -21 -19 -40 31 -54 32 -47 4 5 -16 2 -20 -8 -15 -8 3 -22 9 -31 12 -10 4
-18 12 -18 19 0 9 -20 16 -55 20 -30 4 -58 11 -61 16 -9 15 48 22 83 10 19 -7
37 -10 40 -7 11 11 -7 36 -27 36 -11 0 -20 5 -20 10 0 6 17 10 38 10 35 1 36
1 17 16 -22 16 -122 11 -162 -8 -30 -15 -42 -2 -17 17 11 9 40 14 72 13 29 0
56 2 59 6 3 3 24 6 45 6 27 0 38 -4 38 -15z m-11536 -5164 c-10 -10 -43 -7
-48 5 -7 19 3 23 29 10 13 -6 22 -13 19 -15z m-74 -15 c0 -9 -30 -14 -35 -6
-4 6 3 10 14 10 12 0 21 -2 21 -4z m63 -13 c-7 -2 -19 -2 -25 0 -7 3 -2 5 12
5 14 0 19 -2 13 -5z m-63 -28 c0 -1 -12 -10 -26 -20 -15 -9 -24 -12 -20 -7 3
6 2 13 -4 17 -20 12 -9 21 20 17 17 -2 30 -5 30 -7z m9670 -889 c0 -3 -4 -8
-10 -11 -5 -3 -10 -1 -10 4 0 6 5 11 10 11 6 0 10 -2 10 -4z m244 -21 c3 -8 1
-15 -4 -15 -6 0 -10 7 -10 15 0 8 2 15 4 15 2 0 6 -7 10 -15z m-304 -19 c0 -3
-4 -8 -10 -11 -5 -3 -10 -1 -10 4 0 6 5 11 10 11 6 0 10 -2 10 -4z m194 -13
c6 -15 -8 -32 -26 -33 -15 0 -18 20 -6 34 17 20 24 20 32 -1z m203 -59 c-9
-10 -38 16 -31 28 4 6 13 4 22 -6 9 -8 13 -19 9 -22z m-102 16 c-3 -5 -10 -10
-16 -10 -5 0 -9 5 -9 10 0 6 7 10 16 10 8 0 12 -4 9 -10z m45 -30 c0 -5 -4
-10 -10 -10 -5 0 -10 5 -10 10 0 6 5 10 10 10 6 0 10 -4 10 -10z m-164 -7
c-10 -11 -56 -11 -56 -1 0 4 14 8 32 8 17 0 28 -3 24 -7z m222 -33 c-13 -21
-29 -22 -35 -3 -4 10 11 17 40 22 4 0 2 -8 -5 -19z m-128 -10 c0 -5 -4 -10
-10 -10 -5 0 -10 5 -10 10 0 6 5 10 10 10 6 0 10 -4 10 -10z m-152 -24 c3 -12
-1 -17 -10 -14 -7 3 -15 13 -16 22 -3 12 1 17 10 14 7 -3 15 -13 16 -22z m-42
-7 c3 -5 2 -14 -1 -20 -7 -10 -45 16 -45 32 0 9 39 -1 46 -12z m-121 -37 c-8
-8 -25 10 -25 26 0 13 2 13 14 -4 8 -10 13 -21 11 -22z m396 23 c0 -5 -9 -11
-21 -13 -20 -3 -27 8 -13 22 10 9 34 3 34 -9z m-351 -5 c0 -5 15 -13 33 -18
26 -7 31 -13 29 -32 -3 -32 -4 -32 -45 -12 -30 15 -35 20 -25 31 10 11 10 14
1 18 -15 6 -17 23 -3 23 6 0 10 -4 10 -10z m550 -16 c0 -8 -4 -12 -10 -9 -5 3
-10 13 -10 21 0 8 5 12 10 9 6 -3 10 -13 10 -21z m-241 2 c15 -17 3 -47 -17
-44 -8 2 -17 -3 -19 -9 -3 -9 7 -13 34 -14 37 0 38 0 16 -16 -37 -26 -25 -52
25 -53 21 -1 58 -28 49 -36 -3 -3 -12 -2 -19 2 -7 5 -30 9 -50 10 -33 0 -38
-3 -38 -23 0 -27 30 -32 50 -8 9 11 16 12 25 5 7 -6 19 -8 26 -5 8 3 21 -7 30
-24 16 -27 16 -30 -7 -59 -17 -21 -30 -29 -44 -25 -16 4 -18 8 -9 19 16 20 2
17 -19 -3 -43 -41 -60 -50 -93 -49 -27 1 -34 5 -34 21 0 16 7 20 30 20 17 0
36 4 43 8 20 13 14 29 -10 27 -39 -4 -43 0 -20 16 25 17 30 54 7 54 -8 0 -15
7 -15 15 0 9 -6 12 -15 8 -9 -3 -22 2 -30 13 -19 25 -18 34 3 34 9 0 23 10 31
21 13 21 12 22 -21 16 -28 -4 -41 0 -63 19 -21 18 -31 21 -36 12 -4 -7 -5 -16
-3 -20 3 -4 0 -8 -5 -8 -6 0 -11 -13 -11 -30 0 -21 -5 -30 -16 -30 -14 0 -14
3 -4 15 8 9 9 15 2 15 -6 0 -14 -4 -17 -10 -3 -5 -15 -10 -26 -10 -29 0 -18
24 12 28 36 6 48 20 44 52 -3 24 0 28 26 32 20 3 39 -2 54 -14 26 -20 45 -23
45 -8 0 6 11 10 24 10 14 0 28 5 31 10 3 6 1 10 -4 10 -6 0 -11 5 -11 10 0 15
36 12 49 -4z m-435 -33 c14 -15 24 -28 23 -28 -1 -1 -21 0 -44 3 -33 3 -43 8
-43 22 0 16 12 27 32 29 4 1 18 -11 32 -26z m506 -7 c0 -3 -4 -8 -10 -11 -5
-3 -10 -1 -10 4 0 6 5 11 10 11 6 0 10 -2 10 -4z m200 -6 c0 -5 -5 -10 -11
-10 -5 0 -7 5 -4 10 3 6 8 10 11 10 2 0 4 -4 4 -10z m-136 -13 c17 -13 16 -15
-18 -36 -20 -13 -34 -27 -30 -32 3 -5 0 -9 -5 -9 -18 0 -12 26 9 45 15 14 17
21 9 32 -15 18 10 18 35 0z m-454 -16 c0 -12 -20 -25 -27 -18 -7 7 6 27 18 27
5 0 9 -4 9 -9z m-119 -19 c-7 -2 -18 1 -23 6 -8 8 -4 9 13 5 13 -4 18 -8 10
-11z m649 -2 c0 -5 -4 -10 -10 -10 -5 0 -10 5 -10 10 0 6 5 10 10 10 6 0 10
-4 10 -10z m245 0 c3 -5 1 -10 -4 -10 -6 0 -11 5 -11 10 0 6 2 10 4 10 3 0 8
-4 11 -10z m-820 -26 c0 -25 -28 -55 -39 -43 -9 8 17 69 29 69 6 0 11 -12 10
-26z m695 20 c0 -10 -45 -42 -52 -37 -15 9 -8 23 12 23 11 0 20 5 20 10 0 6 5
10 10 10 6 0 10 -3 10 -6z m-175 -26 c31 -14 32 -24 4 -31 -16 -4 -20 -11 -16
-26 6 -26 -1 -27 -19 -4 -8 12 -9 22 -3 30 7 7 6 13 -1 18 -13 8 -13 25 0 25
5 0 21 -5 35 -12z m-625 -38 c0 -5 -4 -10 -10 -10 -5 0 -10 5 -10 10 0 6 5 10
10 10 6 0 10 -4 10 -10z m160 1 c0 -11 -19 -24 -37 -27 -19 -3 -16 13 5 25 22
13 32 14 32 2z m540 -6 c0 -8 -4 -15 -10 -15 -5 0 -10 7 -10 15 0 8 5 15 10
15 6 0 10 -7 10 -15z m-665 -15 c3 -5 -1 -10 -9 -10 -9 0 -16 5 -16 10 0 6 4
10 9 10 6 0 13 -4 16 -10z m-65 -10 c0 -5 -2 -10 -4 -10 -3 0 -8 5 -11 10 -3
6 -1 10 4 10 6 0 11 -4 11 -10z m301 -18 c-16 -5 -41 5 -41 17 0 7 10 6 26 -1
15 -7 21 -14 15 -16z m549 18 c0 -5 -4 -10 -9 -10 -6 0 -13 5 -16 10 -3 6 1
10 9 10 9 0 16 -4 16 -10z m-416 -15 c-6 -16 -34 -21 -34 -7 0 13 11 22 26 22
8 0 11 -6 8 -15z m-249 -4 c3 -5 1 -12 -5 -16 -5 -3 -10 1 -10 9 0 18 6 21 15
7z m485 -11 c0 -5 -4 -10 -10 -10 -5 0 -10 5 -10 10 0 6 5 10 10 10 6 0 10 -4
10 -10z m92 -5 c0 -5 -5 -11 -11 -13 -6 -2 -11 4 -11 13 0 9 5 15 11 13 6 -2
11 -8 11 -13z m-407 -5 c3 -5 -1 -10 -9 -10 -8 0 -18 5 -21 10 -3 6 1 10 9 10
8 0 18 -4 21 -10z m35 -10 c0 -5 -4 -10 -10 -10 -5 0 -10 5 -10 10 0 6 5 10
10 10 6 0 10 -4 10 -10z m-210 -26 c0 -8 -9 -14 -20 -14 -22 0 -28 26 -7 33
16 6 27 -1 27 -19z m110 16 c0 -5 -5 -10 -11 -10 -5 0 -7 5 -4 10 3 6 8 10 11
10 2 0 4 -4 4 -10z m541 -23 c-8 -8 -11 -7 -11 4 0 9 3 19 7 23 4 4 9 2 11 -4
3 -7 -1 -17 -7 -23z m139 23 c0 -5 -4 -10 -9 -10 -6 0 -13 5 -16 10 -3 6 1 10
9 10 9 0 16 -4 16 -10z m-200 -15 c0 -8 -7 -15 -15 -15 -16 0 -20 12 -8 23 11
12 23 8 23 -8z m-74 -40 c-3 -8 0 -18 7 -22 7 -5 -1 -10 -23 -13 -29 -4 -35
-9 -33 -28 2 -13 0 -21 -5 -19 -4 3 -7 -18 -7 -46 0 -48 2 -52 25 -56 39 -5
58 -51 21 -51 -20 0 -48 -27 -38 -37 4 -3 -1 -12 -11 -19 -16 -12 -15 -13 4
-14 16 0 22 -6 22 -25 0 -22 -5 -25 -33 -25 -19 0 -35 -6 -38 -12 -4 -10 -7
-10 -18 0 -12 11 -12 14 1 22 8 5 23 7 33 4 11 -3 17 0 17 10 0 9 -8 16 -18
16 -10 0 -23 5 -29 11 -10 10 -50 -1 -41 -12 1 -3 -6 -15 -18 -27 l-21 -22
-18 20 c-18 20 -18 21 3 27 12 3 22 9 22 14 0 5 7 9 16 9 8 0 12 5 9 10 -3 6
-27 8 -51 6 -61 -6 -82 2 -54 21 11 8 17 19 14 25 -6 10 12 28 29 28 12 0 8
-28 -5 -33 -12 -5 32 -11 80 -10 24 0 30 -12 10 -20 -7 -3 -4 -6 8 -6 11 -1
25 -6 32 -13 6 -6 14 -9 18 -6 3 4 -3 15 -15 24 -14 12 -17 21 -10 30 6 8 6
21 -1 38 -18 47 -12 76 22 108 22 21 28 32 20 37 -9 5 -4 18 18 46 16 21 30
42 30 47 0 5 7 2 16 -7 9 -8 13 -22 10 -30z m-343 23 c28 -13 31 -33 6 -33
-16 0 -49 25 -49 37 0 11 12 10 43 -4z m462 -7 c3 -5 1 -12 -5 -16 -5 -3 -10
1 -10 9 0 18 6 21 15 7z m-430 -59 c14 3 25 2 25 -2 0 -9 -81 -21 -93 -13 -4
2 -3 11 4 19 9 11 15 11 25 3 8 -6 25 -9 39 -7z m400 -12 c-6 -9 -9 -9 -16 1
-10 17 0 34 13 21 6 -6 7 -16 3 -22z m-40 -50 c-3 -6 4 -10 17 -10 16 0 19 -3
10 -9 -7 -4 -14 -17 -14 -28 -2 -15 -8 -18 -25 -15 -13 2 -26 8 -29 13 -3 5
-14 9 -25 9 -26 0 -24 18 5 41 14 11 28 29 32 41 6 21 7 21 21 -5 8 -15 11
-32 8 -37z m95 56 c0 -3 -4 -8 -10 -11 -5 -3 -10 -1 -10 4 0 6 5 11 10 11 6 0
10 -2 10 -4z m-555 -16 c-3 -5 -13 -10 -21 -10 -8 0 -12 5 -9 10 3 6 13 10 21
10 8 0 12 -4 9 -10z m-108 -26 c-3 -3 -12 -4 -19 -1 -8 3 -5 6 6 6 11 1 17 -2
13 -5z m275 -25 c12 -19 17 -20 36 -10 18 9 22 9 22 -3 0 -13 -56 -46 -80 -46
-6 0 -9 -4 -5 -9 3 -5 1 -12 -5 -16 -5 -3 -10 -2 -10 4 0 5 -9 11 -20 13 -18
3 -19 5 -6 31 13 24 13 27 -2 27 -12 0 -10 4 8 14 35 20 46 19 62 -5z m403 1
c3 -6 -1 -13 -10 -16 -19 -8 -30 0 -20 15 8 14 22 14 30 1z m120 0 c3 -5 -1
-10 -10 -10 -9 0 -13 5 -10 10 3 6 8 10 10 10 2 0 7 -4 10 -10z m-58 -6 c-3
-3 -12 -4 -19 -1 -8 3 -5 6 6 6 11 1 17 -2 13 -5z m-97 -49 c-16 -19 -30 -19
-30 -1 0 8 8 16 18 18 24 6 27 1 12 -17z m70 15 c0 -5 -7 -10 -15 -10 -8 0
-15 5 -15 10 0 6 7 10 15 10 8 0 15 -4 15 -10z m63 -51 c-13 -13 -26 -18 -34
-14 -9 6 -7 11 6 22 11 7 26 13 34 13 12 0 11 -5 -6 -21z m-195 -17 c2 -7 -2
-10 -12 -6 -9 3 -16 11 -16 16 0 13 23 5 28 -10z m237 -1 c-3 -6 -14 -11 -23
-11 -15 1 -15 2 2 15 21 16 32 13 21 -4z m-646 -5 c9 -10 9 -16 1 -21 -13 -8
-42 14 -34 26 8 13 20 11 33 -5z m486 -16 c3 -5 1 -10 -4 -10 -6 0 -11 5 -11
10 0 6 2 10 4 10 3 0 8 -4 11 -10z m-537 -22 c-7 -19 -38 -22 -38 -4 0 10 9
16 21 16 12 0 19 -5 17 -12z m452 -6 c0 -11 -30 -37 -52 -45 -21 -8 -25 22 -6
41 14 14 58 16 58 4z m-359 -28 c10 -13 10 -17 -2 -25 -32 -20 -61 0 -39 26
16 19 24 19 41 -1z m390 -67 c-5 -5 -17 -7 -26 -3 -14 5 -15 9 -5 21 7 8 9 15
4 15 -5 0 0 7 11 16 19 14 20 13 23 -12 2 -14 -1 -31 -7 -37z m251 41 c-9 -9
-15 -9 -24 0 -9 9 -7 12 12 12 19 0 21 -3 12 -12z m-563 -44 c-6 -8 -20 -14
-30 -14 -11 0 -19 -4 -19 -10 0 -12 -27 -13 -34 -1 -9 14 53 49 75 44 15 -4
17 -8 8 -19z m-209 -19 c-7 -9 -15 -13 -19 -10 -3 3 1 10 9 15 21 14 24 12 10
-5z m373 -14 c-9 -11 -20 -18 -25 -15 -12 8 11 34 28 34 11 0 10 -4 -3 -19z
m-118 -11 c3 -5 1 -10 -4 -10 -6 0 -11 5 -11 10 0 6 2 10 4 10 3 0 8 -4 11
-10z m-175 -40 c0 -15 -57 -29 -69 -17 -17 17 -13 25 17 29 31 4 52 -1 52 -12z
m235 -30 c3 -5 -1 -10 -10 -10 -9 0 -13 5 -10 10 3 6 8 10 10 10 2 0 7 -4 10
-10z m-70 -20 c-3 -5 -15 -10 -26 -10 -11 0 -17 5 -14 10 3 6 15 10 26 10 11
0 17 -4 14 -10z m345 -15 c0 -8 -7 -15 -15 -15 -16 0 -20 12 -8 23 11 12 23 8
23 -8z m-410 -5 c0 -5 -4 -10 -10 -10 -5 0 -10 5 -10 10 0 6 5 10 10 10 6 0
10 -4 10 -10z m15 -50 c3 -5 1 -10 -4 -10 -6 0 -11 5 -11 10 0 6 2 10 4 10 3
0 8 -4 11 -10z m-14545 -1075 c12 2 31 0 41 -6 14 -7 19 -6 19 2 0 8 4 8 15
-1 8 -7 15 -9 15 -4 0 5 5 2 10 -6 9 -13 11 -13 21 0 8 11 12 12 16 2 2 -6 9
-9 14 -6 6 3 21 -2 34 -10 19 -12 25 -13 25 -4 0 10 2 10 8 1 4 -7 25 -14 45
-16 21 -3 44 -10 50 -17 9 -10 9 -11 -2 -5 -10 6 -12 4 -6 -4 4 -7 15 -11 24
-8 9 2 22 -2 29 -10 10 -10 10 -13 0 -14 -20 -1 87 -28 126 -32 20 -2 39 -7
43 -10 3 -4 15 -7 26 -7 18 0 19 -5 13 -74 -8 -84 -39 -256 -61 -333 -14 -48
-21 -57 -88 -102 -39 -27 -96 -72 -125 -99 -29 -28 -65 -53 -80 -57 -39 -10
-152 -66 -152 -75 0 -12 -69 -33 -103 -32 -16 0 -45 12 -66 25 -20 13 -52 30
-71 37 -19 7 -39 17 -45 21 -5 3 -26 10 -45 15 -45 10 -39 8 -85 28 -75 32
-230 109 -270 135 -22 14 -44 24 -48 23 -4 -1 -10 5 -13 13 -4 8 -9 15 -14 15
-7 0 -135 81 -156 98 -6 5 -21 13 -35 17 -13 4 -40 17 -59 29 -59 36 -73 44
-127 73 -29 15 -53 31 -53 35 0 4 -6 8 -14 8 -8 0 -40 19 -73 43 -66 47 -83
58 -163 99 -30 16 -79 46 -108 68 -30 21 -58 40 -62 42 -5 2 -10 12 -12 23 -3
17 3 20 37 21 22 1 47 4 56 8 10 4 20 3 23 -3 4 -6 13 -8 21 -5 8 4 12 10 9
15 -3 5 2 9 10 9 9 0 16 -3 16 -7 0 -5 32 -8 71 -8 39 0 72 -2 74 -5 2 -3 23
-4 47 -3 98 7 198 8 198 3 0 -10 206 -4 226 8 12 6 24 9 27 6 10 -10 110 -14
122 -4 7 6 21 4 39 -5 32 -17 49 -20 26 -5 -11 7 -7 9 17 7 17 -2 39 -9 47
-17 13 -10 16 -10 16 4 0 11 5 14 12 10 6 -4 26 -7 45 -6 20 1 31 -3 28 -8 -3
-6 -2 -10 3 -10 5 0 14 10 20 23 8 17 11 18 11 5 1 -20 16 -24 26 -7 4 6 13 8
21 5 7 -3 16 -1 19 4 3 5 13 6 21 3 9 -3 20 0 24 7 10 16 24 19 103 26 32 3
68 9 80 13 12 5 27 5 33 0 6 -5 21 -7 34 -4z m17335 -1025 c3 -5 1 -10 -4 -10
-6 0 -11 5 -11 10 0 6 2 10 4 10 3 0 8 -4 11 -10z m107 -32 c5 -15 69 -13 79
4 16 25 149 -66 149 -103 0 -10 8 -20 18 -23 9 -3 4 -4 -11 -2 -24 3 -28 0
-24 -15 3 -10 -1 -20 -9 -23 -8 -3 -14 -15 -14 -26 0 -12 -4 -18 -10 -15 -5 3
-10 -1 -10 -9 0 -9 -4 -16 -10 -16 -5 0 -10 5 -10 11 0 5 -4 7 -10 4 -20 -12
-50 -14 -50 -2 0 7 -4 6 -10 -3 -7 -11 -4 -17 10 -22 20 -7 28 -48 10 -48 -5
0 -10 5 -10 11 0 20 -45 48 -97 60 -29 7 -53 16 -53 21 0 4 3 7 8 7 18 -3 35
2 29 8 -4 3 -2 12 4 20 9 9 8 13 0 13 -6 0 -10 3 -10 8 6 34 -2 43 -32 40 -28
-3 -32 0 -35 25 -2 18 1 25 9 20 6 -3 1 8 -12 25 -17 25 -19 32 -8 32 9 0 25
-12 36 -27 17 -24 22 -26 31 -13 5 8 8 20 5 27 -2 6 1 14 8 17 20 8 25 7 29
-6z m-3290 -63 c39 0 62 -6 75 -18 11 -9 34 -20 51 -23 18 -4 32 -11 32 -16 0
-6 7 -7 15 -4 9 3 18 -1 21 -9 3 -7 19 -17 36 -20 18 -4 32 -15 35 -26 3 -10
9 -19 14 -19 5 0 9 -5 9 -12 0 -6 -3 -8 -7 -5 -3 4 -17 0 -30 -8 -24 -16 -64
-15 -129 4 -16 4 -35 6 -42 3 -7 -2 -25 6 -39 19 -13 13 -32 24 -41 25 -10 1
-34 2 -55 3 -25 0 -46 9 -60 24 -12 12 -34 29 -50 36 -25 14 -26 16 -11 32 12
13 27 17 50 14 18 -2 36 0 39 6 4 5 12 6 18 2 7 -4 37 -8 69 -8z m-254 -23 c5
-17 -13 -15 -27 2 -10 12 -9 14 5 12 10 -2 20 -8 22 -14z m3452 -42 c0 -5 -4
-10 -10 -10 -5 0 -10 5 -10 10 0 6 5 10 10 10 6 0 10 -4 10 -10z m33 -27 c-7
-2 -19 -2 -25 0 -7 3 -2 5 12 5 14 0 19 -2 13 -5z m19994 -218 c0 -17 -24 -28
-32 -15 -4 7 13 23 31 30 0 0 1 -7 1 -15z m-552 -105 c3 -6 -1 -7 -9 -4 -18 7
-21 14 -7 14 6 0 13 -4 16 -10z m1897 -32 c-6 -6 -15 -8 -19 -4 -4 4 -1 11 7
16 19 12 27 3 12 -12z m228 -48 c0 -5 -5 -10 -11 -10 -5 0 -7 5 -4 10 3 6 8
10 11 10 2 0 4 -4 4 -10z m-2840 -61 c0 -5 -4 -9 -10 -9 -5 0 -10 7 -10 16 0
8 5 12 10 9 6 -3 10 -10 10 -16z m290 11 c0 -5 -2 -10 -4 -10 -3 0 -8 5 -11
10 -3 6 -1 10 4 10 6 0 11 -4 11 -10z m2700 -10 c0 -5 10 -10 22 -10 28 0 15
-13 -17 -16 -19 -2 -25 2 -25 17 0 10 5 19 10 19 6 0 10 -4 10 -10z m-3054
-30 c0 -12 -4 -16 -9 -11 -5 5 -6 14 -3 20 10 15 12 14 12 -9z m109 0 c3 -5 1
-10 -4 -10 -6 0 -11 5 -11 10 0 6 2 10 4 10 3 0 8 -4 11 -10z m3345 -61 c0 -5
-4 -9 -10 -9 -5 0 -10 7 -10 16 0 8 5 12 10 9 6 -3 10 -10 10 -16z m60 -8 c0
-5 -9 -11 -19 -14 -14 -3 -18 -1 -14 9 6 15 33 19 33 5z m-130 -16 c10 -12 10
-15 -4 -15 -9 0 -16 7 -16 15 0 8 2 15 4 15 2 0 9 -7 16 -15z m-3820 -15 c0
-5 -5 -10 -11 -10 -5 0 -7 5 -4 10 3 6 8 10 11 10 2 0 4 -4 4 -10z m3985 -11
c0 -9 -9 -13 -22 -12 -17 2 -24 -4 -29 -23 l-7 -26 -16 25 c-11 20 -21 25 -38
21 -14 -4 -23 -2 -23 6 0 6 4 9 9 6 5 -3 20 0 33 7 33 17 93 14 93 -4z m-3890
1 c3 -5 1 -10 -4 -10 -6 0 -11 5 -11 10 0 6 2 10 4 10 3 0 8 -4 11 -10z m-50
-20 c3 -5 2 -10 -4 -10 -5 0 -13 5 -16 10 -3 6 -2 10 4 10 5 0 13 -4 16 -10z
m-955 -550 c0 -5 -2 -10 -4 -10 -3 0 -8 5 -11 10 -3 6 -1 10 4 10 6 0 11 -4
11 -10z m-387 -475 c-7 -21 -13 -19 -13 6 0 11 4 18 10 14 5 -3 7 -12 3 -20z
m-3406 -781 c-3 -3 -12 -4 -19 -1 -8 3 -5 6 6 6 11 1 17 -2 13 -5z m-8252
-3294 c-3 -5 -12 -10 -18 -10 -7 0 -6 4 3 10 19 12 23 12 15 0z m-332 -33 c3
-8 -5 -14 -24 -15 -34 -3 -39 15 -6 21 12 2 23 5 23 6 1 0 4 -5 7 -12z m-373
-31 c0 -3 -4 -8 -10 -11 -5 -3 -10 -1 -10 4 0 6 5 11 10 11 6 0 10 -2 10 -4z
m-325 -16 c3 -5 1 -10 -4 -10 -6 0 -11 5 -11 10 0 6 2 10 4 10 3 0 8 -4 11
-10z m-1625 -624 c0 -2 -7 -7 -16 -10 -8 -3 -12 -2 -9 4 6 10 25 14 25 6z
m-340 -160 c0 -3 -4 -8 -10 -11 -5 -3 -10 -1 -10 4 0 6 5 11 10 11 6 0 10 -2
10 -4z m-496 -180 c-3 -9 -10 -16 -15 -16 -6 0 -5 9 1 21 13 24 24 20 14 -5z
m-137 -22 c-3 -3 -12 -4 -19 -1 -8 3 -5 6 6 6 11 1 17 -2 13 -5z m-107 -24 c0
-5 -4 -10 -10 -10 -5 0 -10 5 -10 10 0 6 5 10 10 10 6 0 10 -4 10 -10z m-510
-140 c0 -5 -2 -10 -4 -10 -3 0 -8 5 -11 10 -3 6 -1 10 4 10 6 0 11 -4 11 -10z
m-303 -112 c-3 -8 -6 -5 -6 6 -1 11 2 17 5 13 3 -3 4 -12 1 -19z m-2317 -979
c0 -5 -4 -9 -10 -9 -5 0 -10 7 -10 16 0 8 5 12 10 9 6 -3 10 -10 10 -16z"/>
<path d="M18096 26461 c-4 -7 -5 -15 -2 -18 9 -9 19 4 14 18 -4 11 -6 11 -12
0z"/>
<path d="M22205 23869 c-9 -28 1 -35 23 -16 10 10 24 17 31 17 7 0 9 5 6 10
-11 19 -53 11 -60 -11z"/>
<path d="M22005 23710 c4 -6 11 -8 16 -5 14 9 11 15 -7 15 -8 0 -12 -5 -9 -10z"/>
<path d="M21975 23640 c3 -5 8 -10 11 -10 2 0 4 5 4 10 0 6 -5 10 -11 10 -5 0
-7 -4 -4 -10z"/>
<path d="M20220 11129 c0 -5 5 -7 10 -4 6 3 10 8 10 11 0 2 -4 4 -10 4 -5 0
-10 -5 -10 -11z"/>
<path d="M22962 8558 c5 -15 28 -23 28 -10 0 5 -7 13 -16 16 -10 4 -14 1 -12
-6z"/>
<path d="M43000 8220 c0 -5 5 -10 10 -10 6 0 10 5 10 10 0 6 -4 10 -10 10 -5
0 -10 -4 -10 -10z"/>
<path d="M43200 8205 c0 -8 4 -15 10 -15 5 0 7 7 4 15 -4 8 -8 15 -10 15 -2 0
-4 -7 -4 -15z"/>
<path d="M43320 8211 c0 -5 7 -14 15 -21 16 -14 18 -10 9 14 -6 17 -24 22 -24
7z"/>
<path d="M41600 7966 c0 -2 7 -7 16 -10 8 -3 12 -2 9 4 -6 10 -25 14 -25 6z"/>
<path d="M41115 7820 c-3 -5 -1 -10 4 -10 6 0 11 5 11 10 0 6 -2 10 -4 10 -3
0 -8 -4 -11 -10z"/>
<path d="M44930 7819 c0 -5 5 -7 10 -4 6 3 10 8 10 11 0 2 -4 4 -10 4 -5 0
-10 -5 -10 -11z"/>
<path d="M40758 7663 c7 -3 16 -2 19 1 4 3 -2 6 -13 5 -11 0 -14 -3 -6 -6z"/>
<path d="M40600 7580 c0 -5 5 -10 10 -10 6 0 10 5 10 10 0 6 -4 10 -10 10 -5
0 -10 -4 -10 -10z"/>
<path d="M40650 7570 c0 -5 5 -10 11 -10 5 0 7 5 4 10 -3 6 -8 10 -11 10 -2 0
-4 -4 -4 -10z"/>
<path d="M40394 7430 c-22 -9 -37 -34 -27 -44 13 -13 21 -5 15 16 -4 17 -2 20
11 15 9 -3 18 0 21 9 3 8 4 14 3 13 -1 0 -11 -4 -23 -9z"/>
<path d="M40270 7340 c0 -5 5 -10 11 -10 5 0 7 5 4 10 -3 6 -8 10 -11 10 -2 0
-4 -4 -4 -10z"/>
<path d="M40147 7223 c-4 -3 -7 -11 -7 -17 0 -6 5 -5 12 2 6 6 9 14 7 17 -3 3
-9 2 -12 -2z"/>
<path d="M39891 6864 c0 -11 3 -14 6 -6 3 7 2 16 -1 19 -3 4 -6 -2 -5 -13z"/>
<path d="M39705 6640 c-3 -6 1 -7 9 -4 18 7 21 14 7 14 -6 0 -13 -4 -16 -10z"/>
<path d="M45097 4010 c-9 -11 -24 -20 -32 -20 -8 0 -15 -8 -15 -17 0 -10 -7
-26 -14 -36 -13 -17 -14 -17 -20 0 -6 14 -9 15 -16 3 -5 -8 -7 -17 -4 -21 2
-4 -3 -12 -11 -19 -7 -6 -12 -17 -9 -24 4 -11 -22 -30 -34 -26 -8 2 -60 -65
-56 -72 3 -4 -2 -8 -10 -8 -9 0 -16 -7 -16 -15 0 -8 -11 -17 -25 -21 -14 -3
-25 -12 -25 -19 0 -12 -42 -46 -55 -45 -11 1 -33 -27 -37 -46 -2 -10 -9 -18
-16 -17 -7 2 -9 -4 -5 -13 5 -13 2 -15 -16 -9 -17 5 -29 -1 -56 -31 -19 -21
-35 -42 -35 -47 0 -5 -7 -6 -16 -3 -8 3 -12 2 -9 -4 3 -6 0 -10 -7 -10 -16 0
-79 -66 -70 -74 3 -3 -2 -6 -11 -6 -9 0 -17 -7 -17 -15 0 -8 -9 -15 -19 -15
-12 0 -21 -9 -25 -26 -5 -19 -12 -25 -25 -21 -22 5 -48 -13 -60 -44 -7 -17
-10 -19 -10 -6 -1 16 -2 16 -19 0 -12 -12 -14 -21 -8 -25 6 -4 1 -8 -11 -8
-13 0 -28 -9 -35 -20 -14 -21 -34 -29 -22 -7 9 15 -38 -23 -49 -41 -5 -7 -13
-10 -18 -6 -5 3 -8 0 -7 -7 2 -7 -6 -15 -17 -17 -11 -2 -24 -11 -28 -18 -5 -8
-13 -11 -19 -8 -6 4 -16 0 -22 -8 -6 -8 -38 -30 -70 -48 -33 -18 -71 -43 -85
-56 -18 -17 -29 -20 -42 -14 -13 7 -18 5 -22 -12 -4 -12 -9 -19 -13 -15 -4 3
-19 -2 -34 -13 -16 -11 -33 -20 -38 -20 -6 0 -17 -8 -24 -18 -7 -10 -26 -22
-41 -26 -15 -3 -25 -11 -22 -16 3 -5 1 -11 -5 -15 -5 -3 -10 -1 -10 6 0 7 -14
-2 -30 -20 -29 -30 -48 -41 -35 -21 3 6 -1 7 -9 4 -9 -3 -16 -10 -16 -15 0 -5
-8 -9 -18 -9 -9 0 -26 -11 -36 -25 -11 -14 -29 -25 -42 -25 -13 0 -24 -6 -24
-12 0 -9 -4 -8 -10 2 -8 13 -10 12 -10 -2 0 -12 -8 -18 -25 -18 -14 0 -23 -5
-21 -12 1 -7 1 -10 -1 -5 -7 12 -24 8 -62 -15 -20 -13 -38 -24 -41 -24 -35
-10 -49 -18 -44 -25 3 -5 -1 -6 -9 -3 -8 3 -19 -2 -26 -10 -7 -8 -19 -12 -27
-9 -8 3 -14 0 -14 -6 0 -6 -9 -11 -20 -11 -11 0 -23 -6 -26 -14 -5 -12 -30
-24 -51 -24 -3 0 -10 -7 -14 -15 -5 -8 -25 -18 -44 -21 -21 -4 -33 -11 -29
-18 4 -6 -1 -8 -15 -3 -16 5 -20 3 -15 -9 6 -15 -6 -20 -43 -19 -7 1 -13 -4
-13 -9 0 -6 -9 -8 -20 -5 -11 3 -18 0 -17 -6 1 -6 -8 -13 -20 -15 -13 -2 -23
-10 -23 -18 0 -8 -4 -13 -9 -10 -5 4 -11 1 -13 -5 -2 -6 -16 -12 -31 -12 -16
-1 -29 -9 -33 -20 -4 -12 -12 -16 -24 -12 -12 4 -25 -3 -39 -21 -12 -15 -21
-24 -21 -21 0 7 -46 -13 -77 -33 -13 -8 -23 -20 -23 -27 0 -7 -8 -13 -17 -13
-9 0 -34 -18 -54 -40 -21 -22 -42 -40 -48 -40 -6 0 -11 -5 -11 -10 0 -6 -10
-14 -22 -19 -13 -5 -23 -16 -23 -25 0 -8 -4 -15 -10 -13 -5 1 -9 6 -7 10 1 5
-2 6 -8 2 -5 -3 -10 -11 -10 -16 0 -15 -23 -34 -40 -34 -9 0 -14 -7 -12 -17 2
-11 -4 -16 -15 -15 -22 1 -75 -32 -68 -44 3 -4 -4 -6 -15 -4 -11 2 -18 0 -15
-4 6 -11 -23 -44 -53 -60 -12 -7 -20 -16 -17 -20 3 -5 -2 -12 -11 -15 -8 -3
-12 -2 -9 4 15 23 -25 -4 -49 -35 -15 -18 -38 -36 -51 -39 -15 -4 -25 -14 -25
-24 0 -13 -2 -14 -9 -3 -7 11 -11 9 -20 -8 -7 -11 -18 -21 -27 -21 -8 0 -17
-6 -20 -14 -3 -8 -12 -12 -20 -9 -10 4 -12 0 -7 -13 5 -14 3 -16 -11 -11 -9 4
-15 3 -12 -2 3 -5 -1 -14 -9 -21 -12 -10 -15 -10 -15 1 -1 10 -4 8 -11 -3 -5
-10 -17 -18 -26 -18 -13 0 -13 -2 -2 -16 11 -14 10 -16 -11 -12 -17 2 -24 -1
-22 -10 1 -8 -1 -11 -6 -8 -10 6 -62 -37 -62 -53 0 -6 -7 -11 -15 -11 -8 0
-15 -6 -15 -14 0 -8 -9 -18 -20 -21 -11 -3 -20 -13 -20 -21 0 -8 -4 -13 -9
-10 -5 3 -23 -8 -41 -24 -18 -17 -37 -30 -42 -30 -6 0 -19 -10 -29 -21 -13
-15 -26 -20 -43 -17 -16 3 -23 1 -19 -5 4 -6 0 -8 -10 -4 -9 3 -18 0 -21 -9
-3 -8 -13 -14 -21 -14 -9 0 -14 -4 -11 -8 3 -4 -8 -7 -25 -6 -19 1 -29 -3 -29
-12 0 -8 -10 -14 -24 -14 -14 0 -31 -6 -38 -14 -8 -8 -23 -15 -34 -18 -11 -2
-20 -13 -22 -26 -3 -16 -8 -22 -18 -18 -14 6 -24 0 -63 -35 -10 -9 -29 -19
-42 -22 -13 -4 -39 -20 -57 -36 -18 -17 -39 -28 -47 -25 -8 4 -15 2 -15 -4 0
-6 6 -13 13 -15 7 -3 5 -6 -5 -6 -10 -1 -18 5 -19 12 0 6 -5 2 -11 -10 -6 -13
-15 -23 -20 -23 -6 0 -23 -9 -39 -21 -20 -14 -29 -16 -29 -7 0 10 -3 9 -10 -2
-5 -8 -10 -12 -10 -8 0 8 -123 -80 -152 -108 -10 -10 -31 -17 -48 -17 -16 0
-30 -6 -30 -12 0 -6 -24 -20 -54 -30 -30 -10 -53 -22 -50 -26 2 -4 -15 -10
-38 -14 -24 -4 -46 -12 -50 -18 -3 -6 -19 -12 -35 -14 -15 -2 -45 -13 -66 -24
-21 -10 -49 -19 -62 -19 -14 0 -25 -4 -25 -8 0 -5 -39 -21 -87 -37 -49 -15
-92 -31 -97 -36 -6 -5 -19 -9 -30 -9 -12 0 -35 -9 -52 -19 -17 -10 -45 -22
-62 -26 -18 -3 -32 -11 -32 -16 0 -5 -9 -9 -20 -9 -10 0 -29 -4 -42 -9 -46
-19 -63 -24 -88 -28 -13 -2 -29 -8 -35 -13 -5 -4 -27 -11 -47 -15 -21 -4 -38
-11 -38 -15 0 -7 -18 -12 -88 -26 -8 -1 -21 -6 -30 -10 -9 -4 -24 -8 -32 -10
-36 -7 -90 -28 -90 -35 0 -4 -10 -11 -22 -15 -13 -3 -30 -13 -39 -21 -9 -7
-21 -13 -25 -11 -9 3 -26 -8 -70 -49 -13 -12 -34 -25 -46 -28 -13 -4 -30 -13
-38 -20 -8 -7 -31 -16 -50 -20 -30 -6 -63 -21 -152 -66 -10 -5 -25 -9 -35 -9
-9 0 -25 -7 -35 -17 -10 -9 -33 -17 -51 -18 -17 -1 -45 -8 -62 -14 -16 -7 -40
-13 -52 -13 -13 0 -20 -4 -17 -9 3 -5 -11 -9 -30 -9 -20 0 -36 -4 -36 -10 0
-5 -12 -13 -27 -16 -16 -4 -49 -19 -74 -35 -25 -16 -56 -29 -68 -29 -12 0 -20
-4 -17 -9 3 -5 -5 -12 -19 -15 -14 -4 -25 -11 -25 -16 0 -7 1182 -10 3395 -10
l3395 0 0 2015 c0 1108 -1 2015 -3 2015 -1 0 -10 -9 -20 -20z m-317 -364 c0
-3 -4 -8 -10 -11 -5 -3 -10 -1 -10 4 0 6 5 11 10 11 6 0 10 -2 10 -4z"/>
<path d="M28810 2810 c-9 -6 -10 -10 -3 -10 6 0 15 5 18 10 8 12 4 12 -15 0z"/>
<path d="M43470 2780 c0 -5 5 -10 11 -10 5 0 7 5 4 10 -3 6 -8 10 -11 10 -2 0
-4 -4 -4 -10z"/>
<path d="M25565 2080 c-3 -5 -1 -10 4 -10 6 0 11 5 11 10 0 6 -2 10 -4 10 -3
0 -8 -4 -11 -10z"/>
<path d="M24857 1750 c-3 -11 -3 -20 -1 -20 2 0 8 9 14 20 6 11 7 20 2 20 -6
0 -12 -9 -15 -20z"/>
<path d="M24334 1600 c0 -13 4 -16 10 -10 7 7 7 13 0 20 -6 6 -10 3 -10 -10z"/>
<path d="M41440 1434 c0 -8 5 -12 10 -9 6 3 10 10 10 16 0 5 -4 9 -10 9 -5 0
-10 -7 -10 -16z"/>
<path d="M22000 690 c0 -5 5 -10 11 -10 5 0 7 5 4 10 -3 6 -8 10 -11 10 -2 0
-4 -4 -4 -10z"/>
<path d="M21715 560 c3 -5 8 -10 11 -10 2 0 4 5 4 10 0 6 -5 10 -11 10 -5 0
-7 -4 -4 -10z"/>
<path d="M21040 299 c0 -5 5 -7 10 -4 6 3 10 8 10 11 0 2 -4 4 -10 4 -5 0 -10
-5 -10 -11z"/>
</g>
</svg>
